<svg xmlns="http://www.w3.org/2000/svg" viewBox="0 0 117 34">
  <g fill="none" fill-rule="evenodd">
    <path fill="#7678ED" fill-rule="nonzero" d="M47.4522 23.2938c1.5368 0 3.0736-.6102 4.6104-1.8306L52.3112 23h2.6442V11.8582h-3.3222v7.7066c-1.2053333.6177333-2.1319333.9266-2.7798.9266-.452 0-.7684-.0979333-.9492-.2938-.1808-.1958667-.2636667-.5348667-.2486-1.017v-7.3224h-3.3448v8.3394c0 2.0641333 1.0471333 3.0962 3.1414 3.0962zm15.0287684 0c2.1696 0 3.6762667-.3126333 4.52-.9379.8437334-.6252667 1.2656-1.8117667 1.2656-3.5595 0-1.1752-.2486-2.1281667-.7458-2.8589-.4972-.7307333-1.3484666-1.3070333-2.5538-1.7289l-2.9606-1.017c-.6328-.2109333-1.0622-.4294-1.2882-.6554-.226-.226-.339-.5951333-.339-1.1074 0-.6328.1506667-1.0283.452-1.1865.3013334-.1582.904-.2373 1.808-.2373 1.9436 0 3.5708.0226 4.8816.0678l.226-2.3504c-1.4313333-.4068-3.1414-.6102-5.1302-.6102-2.1093333 0-3.5821.29003333-4.4183.8701-.8362.58006667-1.2543 1.7289-1.2543 3.4465 0 1.1752.2486 2.1244.7458 2.8476.4972.7232 1.3258667 1.2957333 2.486 1.7176l3.1414 1.1074c.5574667.1808.9416667.3804333 1.1526.5989.2109334.2184667.3164.5913667.3164 1.1187 0 .6177333-.1544333 1.0245333-.4633 1.2204-.3088666.1958667-.9228333.2938-1.8419.2938-.226 0-1.9436-.0376667-5.1528-.113l-.2034 2.486c1.808.3917333 3.5934.5876 5.3562.5876zm8.5425685 4.2488c.8738666.1054667 1.6686333.0452 2.3843-.1808.7156666-.226 1.3145666-.5763 1.7967-1.0509.4821333-.4746.8776333-.9680333 1.1865-1.4803.3088666-.5122667.5687666-1.0697333.7797-1.6724l3.955-11.3h-3.5708l-2.0566 7.2094c-.0452.1657333-.1205334.4407-.226.8249-.1054667.3842-.1808.6667-.226.8475h-.2938c-.0904-.5876-.2034-1.1450667-.339-1.6724l-2.0792-7.2094h-3.5708l3.6386 10.3282c.1657333.5424.5273333.8136 1.0848.8136h.6328l-.0452.0904c-.2862667.6478667-.6855334 1.1639-1.1978 1.5481-.5122667.3842-1.2204.6968333-2.1244.9379l.2712 1.9662zM85.6681053 23v-7.6162c1.356-.678 2.3880667-1.017 3.0962-1.017.4068 0 .6893.0941667.8475.2825.1582.1883333.2373.5311.2373 1.0283V23h3.3222v-8.362c0-1.0094667-.2674333-1.7778667-.8023-2.3052-.5348667-.5273333-1.3070333-.791-2.3165-.791-1.5669333 0-3.1564667.6554-4.7686 1.9662l-.2486-1.6498h-2.712V23h3.3448zm14.0343684.2712c1.2354667 0 2.2826003-.1506667 3.1414003-.452l-.3616-2.3278h-1.4238c-.4520003 0-.7684003-.0828667-.9492003-.2486-.1808-.1657333-.2712-.4595333-.2712-.8814v-5.2658h3.0962003v-2.2374h-3.0962003V8.7394h-3.3222v3.1188l-1.9662.113v2.1244h1.9662v5.9664c0 1.0094667.2787333 1.7967.8362 2.3617s1.3409333.8475 2.3504.8475zM107.770442 23v-7.6162c1.2656-.678 2.297667-1.017 3.0962-1.017.4068 0 .6893.0941667.8475.2825.1582.1883333.2373.5311.2373 1.0283V23h3.3222v-8.362c0-1.0094667-.267433-1.7778667-.8023-2.3052-.534867-.5273333-1.307033-.791-2.3165-.791-1.4916 0-3.013333.6102-4.5652 1.8306.1356-.7834667.2034-1.5594.2034-2.3278V7.18h-3.3674V23h3.3448z"/>
    <g stroke="#7678ED" stroke-linecap="round" stroke-linejoin="round" stroke-width="2.82093664">
      <path d="M1.70523416 14.10468324v7.05234156M29.9146006 14.10468324v7.05234156M12.9889807 4.231405v22.5674931M24.2727273 11.2837466v14.1046832M7.34710744 9.87327828V23.9779615M18.630854 8.46280996V31.0303031"/>
    </g>
  </g>
</svg>