<svg xmlns="http://www.w3.org/2000/svg" viewBox="0 0 162 34">
  <g fill="none" fill-rule="evenodd">
    <path fill="#7678ED" fill-rule="nonzero" d="M49.8134876 23.2933774c2.1664793 0 3.6709789-.3121836 4.5134986-.936551.8425198-.6243673 1.2637796-1.8091607 1.2637796-3.5543801 0-1.1735097-.2482424-2.1251056-.7447272-2.8547879-.4964849-.7296823-1.3465271-1.3051533-2.5501268-1.7264132l-2.9563416-1.0155372c-.6318898-.2106299-1.0606721-.4287824-1.2863471-.6544573-.2256749-.2256749-.3385124-.5942773-.3385124-1.1058072 0-.6318898.15045-1.0268209.4513499-1.1847934.3008999-.1579724.9026997-.2369586 1.8053995-.2369586 1.9408044 0 3.5656639.0225675 4.8745785.0677024l.2256749-2.34701924c-1.4292746-.40621488-3.1368815-.60932232-5.1228209-.60932232-2.1062994 0-3.5769477.28961616-4.4119449.86884849-.8349973.57923232-1.2524959 1.72641322-1.2524959 3.44154267 0 1.1735097.2482424 2.1213444.7447273 2.8435042.4964848.7221597 1.3239596 1.2938696 2.4824242 1.7151294l3.1368815 1.1058072c.5566649.1805399.9403123.3798861 1.1509422.5980386.2106299.2181524.3159449.590516.3159449 1.1170909 0 .6168448-.1542112 1.0230597-.4626336 1.2186446-.3084224.1955849-.921506.2933774-1.8392507.2933774-.2256749 0-1.9408044-.0376125-5.1453884-.1128375l-.2031075 2.4824243c1.8053995.3911699 3.5882314.5867548 5.3484959.5867548zm8.5302812 4.2426887c.8726097.105315 1.6662332.045135 2.3808705-.1805399.7146373-.225675 1.3126758-.5754711 1.7941157-1.0493885.4814398-.4739173.876371-.9666409 1.1847934-1.4781708.3084224-.5115298.5679485-1.0681946.7785785-1.6699944l3.9493113-11.2837466h-3.5656639l-2.0536419 7.1990303c-.045135.1654949-.12036.4400661-.2256749.8237135-.105315.3836474-.18054.665741-.225675.846281h-.2933774c-.09027-.5867548-.2031074-1.1434197-.3385124-1.6699945l-2.0762093-7.1990303h-3.565664l3.6333664 10.3133443c.165495.5416199.5265749.8124298 1.0832397.8124298h.6318898l-.045135.09027c-.2858549.6469348-.6845473 1.1622259-1.1960771 1.5458733-.5115299.3836473-1.2186446.695831-2.1213444.9365509l.27081 1.9633719zM72.9672731 23v-7.6052452c1.3540495-.6770248 2.3846317-1.0155372 3.0917465-1.0155372.4062149 0 .6883085.0940313.846281.2820937.1579725.1880624.2369587.5303361.2369587 1.0268209V23h3.3174215v-8.3499725c0-1.0080146-.2670487-1.7753094-.801146-2.3018842-.5340974-.5265749-1.3051534-.7898623-2.3131681-.7898623-1.5646795 0-3.1519265.6544573-4.761741 1.9633719l-.2482425-1.647427h-2.7080991V23h3.339989zm14.0141819.2708099c1.2336897 0 2.2793168-.1504499 3.1368816-.4513498l-.3610799-2.3244518h-1.4217521c-.4513498 0-.7672947-.0827475-.9478347-.2482425-.1805399-.1654949-.2708099-.4588723-.2708099-.8801322v-5.2582259h3.0917465v-2.2341818H87.11686V8.75991185h-3.3174215v3.11431405l-1.9633719.1128375v2.1213443h1.9633719v5.9578182c0 1.0080147.2783324 1.7941157.8349972 2.358303.5566649.5641874 1.3390046.846281 2.3470193.846281zM95.0378188 23v-7.6052452c1.2637796-.6770248 2.2943618-1.0155372 3.0917466-1.0155372.4062149 0 .6883085.0940313.846281.2820937.1579724.1880624.2369587.5303361.2369587 1.0268209V23h3.3174219v-8.3499725c0-1.0080146-.267049-1.7753094-.801146-2.3018842-.534098-.5265749-1.3051538-.7898623-2.3131685-.7898623-1.4894545 0-3.0089991.6093223-4.5586336 1.8279669.1354049-.7823397.2031074-1.557157.2031074-2.3244518V7.20275482h-3.3625564V23h3.3399889zm14.9394492.2933774c2.166479 0 3.670979-.3121836 4.513499-.936551.842519-.6243673 1.263779-1.8091607 1.263779-3.5543801 0-1.1735097-.248242-2.1251056-.744727-2.8547879-.496485-.7296823-1.346527-1.3051533-2.550127-1.7264132l-2.956341-1.0155372c-.63189-.2106299-1.060673-.4287824-1.286347-.6544573-.225675-.2256749-.338513-.5942773-.338513-1.1058072 0-.6318898.15045-1.0268209.45135-1.1847934.3009-.1579724.9027-.2369586 1.805399-.2369586 1.940805 0 3.565664.0225675 4.874579.0677024l.225675-2.34701924c-1.429275-.40621488-3.136882-.60932232-5.122821-.60932232-2.106299 0-3.576948.28961616-4.411945.86884849-.834997.57923232-1.252496 1.72641322-1.252496 3.44154267 0 1.1735097.248243 2.1213444.744727 2.8435042.496485.7221597 1.32396 1.2938696 2.482425 1.7151294l3.136881 1.1058072c.556665.1805399.940312.3798861 1.150942.5980386.21063.2181524.315945.590516.315945 1.1170909 0 .6168448-.154211 1.0230597-.462633 1.2186446-.308423.1955849-.921506.2933774-1.839251.2933774-.225675 0-1.940804-.0376125-5.145388-.1128375l-.203108 2.4824243c1.8054.3911699 3.588232.5867548 5.348496.5867548zM122.99848 23c.315945 0 .586755-.0940312.81243-.2820937.225675-.1880624.36108-.4325436.406215-.7334435l1.105807-6.2963306.27081-1.8731019h.27081c.045135.2407199.094031.5792323.146689 1.0155372.052657.4363049.086508.7221598.101553.8575647l1.128375 6.2963306c.045135.3008999.18054.5453811.406215.7334435.225675.1880625.488962.2820937.789862.2820937h2.617829c.616845 0 1.000493-.2933774 1.150943-.8801322l2.730666-10.2456419h-3.362556l-1.53459 7.2215978-.27081 1.8279669h-.27081c-.03009-.1955849-.082747-.4964848-.157972-.9026997s-.127883-.7146373-.157973-.9252672l-1.105807-6.2060606c-.045135-.3159449-.176778-.5641873-.394931-.7447273-.218152-.1805399-.477678-.2708099-.778578-.2708099h-2.34702c-.661979 0-1.045627.3309899-1.150942.9929697l-1.128374 6.2286281c-.03009.1955849-.078987.4964848-.146689.9026997-.067703.4062149-.116599.7146373-.146689.9252672h-.293377c-.03009-.4062148-.12036-1.0155372-.27081-1.8279669l-1.512022-7.2215978h-3.362557l2.730667 10.2456419c.15045.5867548.534097.8801322 1.150942.8801322h2.572694zm16.270932.2708099c1.624859 0 2.993954-.6544573 4.107283-1.9633719L143.715208 23h2.640396v-7.3570028c0-1.5044995-.353557-2.5614104-1.060672-3.1707327-.707115-.6093224-1.812922-.9139835-3.317421-.9139835-1.86558 0-3.798862.1805399-5.799846.5416198l.315945 2.2567493c1.895669-.1203599 3.460349-.1805399 4.694039-.1805399.707114 0 1.184793.0977925 1.433035.2933774.248243.1955849.379886.5792323.394931 1.1509422v.4964848h-3.971878c-1.068195 0-1.903192.2482424-2.504992.7447273-.6018.4964848-.9027 1.1885546-.9027 2.0762093v1.1283747c0 1.0080147.338513 1.7941157 1.015537 2.358303.677025.5641874 1.549635.846281 2.61783.846281zm.970402-2.5049917c-.87261 0-1.308915-.3836474-1.308915-1.1509422v-.4287823c0-.6920698.36108-1.0456272 1.08324-1.0606722h3.001476v1.557157c-.947834.7221598-1.873101 1.0832397-2.775801 1.0832397zm11.712297 6.5220055V24.602292c.03009-.8274747.007523-1.6248595-.067702-2.3921543.977925.7221598 2.219137 1.0832397 3.723636 1.0832397 1.459365 0 2.531321-.4250211 3.215868-1.2750634.684547-.8500422 1.026821-2.343258 1.026821-4.4796473 0-3.9718788-1.278825-5.9578182-3.836474-5.9578182-.842519 0-1.673755.1805399-2.493708.5416198-.819952.3610799-1.463126.8199523-1.92952 1.3766171l-.248243-1.6248595h-2.708099v15.4135978h3.317421zm2.52756-6.4768705c-.51153 0-1.35405-.15045-2.52756-.4513499v-5.1002534c1.08324-.7071148 1.993462-1.0606722 2.730667-1.0606722.646935 0 1.098285.2294362 1.35405.6883085.255765.4588724.383647 1.3427659.383647 2.6516805 0 1.3390046-.139166 2.2191368-.417498 2.6403967-.278333.4212598-.786102.6318898-1.523306.6318898z"/>
    <g stroke="#7678ED" stroke-linecap="round" stroke-linejoin="round" stroke-width="2.82093664">
      <path d="M1.70523416 14.10468324v7.05234156M29.9146006 14.10468324v7.05234156M12.9889807 4.231405v22.5674931M24.2727273 11.2837466v14.1046832M7.34710744 9.87327828V23.9779615M18.630854 8.46280996V31.0303031"/>
    </g>
  </g>
</svg>